<mxfile host="app.diagrams.net" agent="Mozilla/5.0 (Windows NT 10.0; Win64; x64) AppleWebKit/537.36 (KHTML, like Gecko) Chrome/134.0.0.0 Safari/537.36" version="26.1.3">
  <diagram name="Página-1" id="YxhbBEmgIP0uJEjZGHPe">
    <mxGraphModel dx="989" dy="542" grid="1" gridSize="10" guides="1" tooltips="1" connect="1" arrows="1" fold="1" page="1" pageScale="1" pageWidth="827" pageHeight="1169" background="#202020" math="0" shadow="0">
      <root>
        <mxCell id="0" />
        <mxCell id="1" parent="0" />
        <mxCell id="qiUgwwKjVemnB6bvXaoM-1" value="Admin" style="shape=umlActor;verticalLabelPosition=bottom;verticalAlign=top;html=1;outlineConnect=0;strokeColor=#d79b00;fillColor=#ffe6cc;fontColor=#FFFFFF;" parent="1" vertex="1">
          <mxGeometry x="20" y="545" width="30" height="60" as="geometry" />
        </mxCell>
        <mxCell id="qiUgwwKjVemnB6bvXaoM-4" value="Iniciar sesión" style="ellipse;whiteSpace=wrap;html=1;strokeColor=#d79b00;fillColor=#ffe6cc;fontColor=#FF8000;labelBorderColor=none;" parent="1" vertex="1">
          <mxGeometry x="280" y="545" width="100" height="60" as="geometry" />
        </mxCell>
        <mxCell id="qiUgwwKjVemnB6bvXaoM-5" value="" style="endArrow=classic;html=1;rounded=0;entryX=0;entryY=0.5;entryDx=0;entryDy=0;strokeColor=#d79b00;fillColor=#ffe6cc;fontColor=#FFFFFF;" parent="1" source="qiUgwwKjVemnB6bvXaoM-1" target="qiUgwwKjVemnB6bvXaoM-4" edge="1">
          <mxGeometry width="50" height="50" relative="1" as="geometry">
            <mxPoint x="440" y="655" as="sourcePoint" />
            <mxPoint x="490" y="605" as="targetPoint" />
          </mxGeometry>
        </mxCell>
        <mxCell id="qiUgwwKjVemnB6bvXaoM-18" value="" style="edgeStyle=orthogonalEdgeStyle;rounded=0;orthogonalLoop=1;jettySize=auto;html=1;strokeColor=#d79b00;fillColor=#ffe6cc;fontColor=#FF8000;labelBorderColor=none;" parent="1" source="qiUgwwKjVemnB6bvXaoM-6" target="qiUgwwKjVemnB6bvXaoM-10" edge="1">
          <mxGeometry relative="1" as="geometry" />
        </mxCell>
        <mxCell id="qiUgwwKjVemnB6bvXaoM-19" style="edgeStyle=orthogonalEdgeStyle;rounded=0;orthogonalLoop=1;jettySize=auto;html=1;entryX=0;entryY=0.5;entryDx=0;entryDy=0;strokeColor=#d79b00;fillColor=#ffe6cc;fontColor=#FF8000;labelBorderColor=none;" parent="1" source="qiUgwwKjVemnB6bvXaoM-6" target="qiUgwwKjVemnB6bvXaoM-9" edge="1">
          <mxGeometry relative="1" as="geometry">
            <Array as="points">
              <mxPoint x="560" y="565" />
              <mxPoint x="560" y="525" />
              <mxPoint x="550" y="525" />
              <mxPoint x="550" y="485" />
            </Array>
          </mxGeometry>
        </mxCell>
        <mxCell id="qiUgwwKjVemnB6bvXaoM-20" style="edgeStyle=orthogonalEdgeStyle;rounded=0;orthogonalLoop=1;jettySize=auto;html=1;entryX=0;entryY=0.5;entryDx=0;entryDy=0;exitX=1;exitY=0;exitDx=0;exitDy=0;strokeColor=#d79b00;fillColor=#ffe6cc;fontColor=#FF8000;labelBorderColor=none;" parent="1" source="qiUgwwKjVemnB6bvXaoM-6" target="qiUgwwKjVemnB6bvXaoM-8" edge="1">
          <mxGeometry relative="1" as="geometry" />
        </mxCell>
        <mxCell id="qiUgwwKjVemnB6bvXaoM-21" style="edgeStyle=orthogonalEdgeStyle;rounded=0;orthogonalLoop=1;jettySize=auto;html=1;entryX=0;entryY=0.5;entryDx=0;entryDy=0;exitX=0.928;exitY=0.72;exitDx=0;exitDy=0;exitPerimeter=0;strokeColor=#d79b00;fillColor=#ffe6cc;fontColor=#FF8000;labelBorderColor=none;" parent="1" source="qiUgwwKjVemnB6bvXaoM-6" target="qiUgwwKjVemnB6bvXaoM-11" edge="1">
          <mxGeometry relative="1" as="geometry" />
        </mxCell>
        <mxCell id="qiUgwwKjVemnB6bvXaoM-22" style="edgeStyle=orthogonalEdgeStyle;rounded=0;orthogonalLoop=1;jettySize=auto;html=1;entryX=0;entryY=0.5;entryDx=0;entryDy=0;exitX=0.928;exitY=0.781;exitDx=0;exitDy=0;exitPerimeter=0;strokeColor=#d79b00;fillColor=#ffe6cc;fontColor=#FF8000;labelBorderColor=none;" parent="1" source="qiUgwwKjVemnB6bvXaoM-6" target="qiUgwwKjVemnB6bvXaoM-12" edge="1">
          <mxGeometry relative="1" as="geometry" />
        </mxCell>
        <mxCell id="qiUgwwKjVemnB6bvXaoM-27" style="edgeStyle=orthogonalEdgeStyle;rounded=0;orthogonalLoop=1;jettySize=auto;html=1;entryX=0.5;entryY=0;entryDx=0;entryDy=0;strokeColor=#d79b00;fillColor=#ffe6cc;fontColor=#FF8000;labelBorderColor=none;" parent="1" source="qiUgwwKjVemnB6bvXaoM-6" target="qiUgwwKjVemnB6bvXaoM-25" edge="1">
          <mxGeometry relative="1" as="geometry">
            <Array as="points">
              <mxPoint x="510" y="665" />
              <mxPoint x="454" y="665" />
            </Array>
          </mxGeometry>
        </mxCell>
        <mxCell id="qiUgwwKjVemnB6bvXaoM-6" value="Acceder al panel de administrador" style="ellipse;whiteSpace=wrap;html=1;strokeColor=#d79b00;fillColor=#ffe6cc;fontColor=#FF8000;labelBorderColor=none;" parent="1" vertex="1">
          <mxGeometry x="420" y="545" width="120" height="60" as="geometry" />
        </mxCell>
        <mxCell id="qiUgwwKjVemnB6bvXaoM-7" value="" style="endArrow=classic;html=1;rounded=0;exitX=1;exitY=0.5;exitDx=0;exitDy=0;entryX=0;entryY=0.5;entryDx=0;entryDy=0;strokeColor=#d79b00;fillColor=#ffe6cc;fontColor=#FF8000;labelBorderColor=none;" parent="1" source="qiUgwwKjVemnB6bvXaoM-4" target="qiUgwwKjVemnB6bvXaoM-6" edge="1">
          <mxGeometry width="50" height="50" relative="1" as="geometry">
            <mxPoint x="500" y="605" as="sourcePoint" />
            <mxPoint x="550" y="555" as="targetPoint" />
          </mxGeometry>
        </mxCell>
        <mxCell id="qiUgwwKjVemnB6bvXaoM-8" value="Gestionar carta" style="ellipse;whiteSpace=wrap;html=1;strokeColor=#d79b00;fillColor=#ffe6cc;fontColor=#FF8000;labelBorderColor=none;" parent="1" vertex="1">
          <mxGeometry x="530" y="385" width="120" height="60" as="geometry" />
        </mxCell>
        <mxCell id="qiUgwwKjVemnB6bvXaoM-9" value="Gestionar categorías&lt;span style=&quot;font-family: monospace; font-size: 0px; text-align: start; text-wrap-mode: nowrap;&quot;&gt;%3CmxGraphModel%3E%3Croot%3E%3CmxCell%20id%3D%220%22%2F%3E%3CmxCell%20id%3D%221%22%20parent%3D%220%22%2F%3E%3CmxCell%20id%3D%222%22%20value%3D%22Gestionar%20carta%22%20style%3D%22ellipse%3BwhiteSpace%3Dwrap%3Bhtml%3D1%3B%22%20vertex%3D%221%22%20parent%3D%221%22%3E%3CmxGeometry%20x%3D%22470%22%20y%3D%22110%22%20width%3D%22120%22%20height%3D%2260%22%20as%3D%22geometry%22%2F%3E%3C%2FmxCell%3E%3C%2Froot%3E%3C%2FmxGraphModel%3E&lt;/span&gt;" style="ellipse;whiteSpace=wrap;html=1;strokeColor=#d79b00;fillColor=#ffe6cc;fontColor=#FF8000;labelBorderColor=none;" parent="1" vertex="1">
          <mxGeometry x="570" y="455" width="120" height="60" as="geometry" />
        </mxCell>
        <mxCell id="qiUgwwKjVemnB6bvXaoM-10" value="Gestionar ofertas y combos&lt;span style=&quot;font-family: monospace; font-size: 0px; text-align: start; text-wrap-mode: nowrap;&quot;&gt;%3CmxGraphModel%3E%3Croot%3E%3CmxCell%20id%3D%220%22%2F%3E%3CmxCell%20id%3D%221%22%20parent%3D%220%22%2F%3E%3CmxCell%20id%3D%222%22%20value%3D%22Gestionar%20carta%22%20style%3D%22ellipse%3BwhiteSpace%3Dwrap%3Bhtml%3D1%3B%22%20vertex%3D%221%22%20parent%3D%221%22%3E%3CmxGeometry%20x%3D%22470%22%20y%3D%22110%22%20width%3D%22120%22%20height%3D%2260%22%20as%3D%22geometry%22%2F%3E%3C%2FmxCell%3E%3C%2Froot%3E%3C%2FmxGraphModel%3E&lt;/span&gt;" style="ellipse;whiteSpace=wrap;html=1;strokeColor=#d79b00;fillColor=#ffe6cc;fontColor=#FF8000;labelBorderColor=none;" parent="1" vertex="1">
          <mxGeometry x="650" y="515" width="120" height="60" as="geometry" />
        </mxCell>
        <mxCell id="qiUgwwKjVemnB6bvXaoM-11" value="Gestionar sucursales&lt;span style=&quot;font-family: monospace; font-size: 0px; text-align: start; text-wrap-mode: nowrap;&quot;&gt;3CmxGraphModel%3E%3Croot%3E%3CmxCell%20id%3D%220%22%2F%3E%3CmxCell%20id%3D%221%22%20parent%3D%220%22%2F%3E%3CmxCell%20id%3D%222%22%20value%3D%22Gestionar%20carta%22%20style%3D%22ellipse%3BwhiteSpace%3Dwrap%3Bhtml%3D1%3B%22%20vertex%3D%221%22%20parent%3D%221%22%3E%3CmxGeometry%20x%3D%22470%22%20y%3D%22110%22%20width%3D%22120%22%20height%3D%2260%22%20as%3D%22geometry%22%2F%3E%3C%2FmxCell%3E%3C%2Froot%3E%3C%2FmxGraphModel%3E&lt;/span&gt;" style="ellipse;whiteSpace=wrap;html=1;strokeColor=#d79b00;fillColor=#ffe6cc;fontColor=#FF8000;labelBorderColor=none;" parent="1" vertex="1">
          <mxGeometry x="700" y="575" width="120" height="60" as="geometry" />
        </mxCell>
        <mxCell id="qiUgwwKjVemnB6bvXaoM-12" value="Gestionar empleados&lt;span style=&quot;font-family: monospace; font-size: 0px; text-align: start; text-wrap-mode: nowrap;&quot;&gt;3CmxGraphModel%3E%3Croot%3E%3CmxCell%20id%3D%220%22%2F%3E%3CmxCell%20id%3D%221%22%20parent%3D%220%22%2F%3E%3CmxCell%20id%3D%222%22%20value%3D%22Gestionar%20carta%22%20style%3D%22ellipse%3BwhiteSpace%3Dwrap%3Bhtml%3D1%3B%22%20vertex%3D%221%22%20parent%3D%221%22%3E%3CmxGeometry%20x%3D%22470%22%20y%3D%22110%22%20width%3D%22120%22%20height%3D%2260%22%20as%3D%22geometry%22%2F%3E%3C%2FmxCell%3E%3C%2Froot%3E%3C%2FmxGraphModel%3E&lt;/span&gt;" style="ellipse;whiteSpace=wrap;html=1;strokeColor=#d79b00;fillColor=#ffe6cc;fontColor=#FF8000;labelBorderColor=none;" parent="1" vertex="1">
          <mxGeometry x="620" y="635" width="120" height="60" as="geometry" />
        </mxCell>
        <mxCell id="qiUgwwKjVemnB6bvXaoM-13" value="Gestionar clientes&lt;span style=&quot;font-family: monospace; font-size: 0px; text-align: start; text-wrap-mode: nowrap;&quot;&gt;3CmxGraphModel%3E%3Croot%3E%3CmxCell%20id%3D%220%22%2F%3E%3CmxCell%20id%3D%221%22%20parent%3D%220%22%2F%3E%3CmxCell%20id%3D%222%22%20value%3D%22Gestionar%20carta%22%20style%3D%22ellipse%3BwhiteSpace%3Dwrap%3Bhtml%3D1%3B%22%20vertex%3D%221%22%20parent%3D%221%22%3E%3CmxGeometry%20x%3D%22470%22%20y%3D%22110%22%20width%3D%22120%22%20height%3D%2260%22%20as%3D%22geometry%22%2F%3E%3C%2FmxCell%3E%3C%2Froot%3E%3C%2FmxGraphModel%3E&lt;/span&gt;" style="ellipse;whiteSpace=wrap;html=1;strokeColor=#d79b00;fillColor=#ffe6cc;fontColor=#FF8000;labelBorderColor=none;" parent="1" vertex="1">
          <mxGeometry x="530" y="695" width="120" height="60" as="geometry" />
        </mxCell>
        <mxCell id="qiUgwwKjVemnB6bvXaoM-23" style="edgeStyle=orthogonalEdgeStyle;rounded=0;orthogonalLoop=1;jettySize=auto;html=1;entryX=0.283;entryY=0.072;entryDx=0;entryDy=0;entryPerimeter=0;exitX=1;exitY=1;exitDx=0;exitDy=0;strokeColor=#d79b00;fillColor=#ffe6cc;fontColor=#FF8000;labelBorderColor=none;" parent="1" source="qiUgwwKjVemnB6bvXaoM-6" target="qiUgwwKjVemnB6bvXaoM-13" edge="1">
          <mxGeometry relative="1" as="geometry" />
        </mxCell>
        <mxCell id="qiUgwwKjVemnB6bvXaoM-25" value="Gestionar historial de ventas" style="ellipse;whiteSpace=wrap;html=1;strokeColor=#d79b00;fillColor=#ffe6cc;fontColor=#FF8000;labelBorderColor=none;" parent="1" vertex="1">
          <mxGeometry x="394" y="725" width="120" height="60" as="geometry" />
        </mxCell>
        <mxCell id="qiUgwwKjVemnB6bvXaoM-28" value="crear una cuenta" style="ellipse;whiteSpace=wrap;html=1;strokeColor=#d79b00;fillColor=#ffe6cc;fontColor=#FF8000;labelBorderColor=none;" parent="1" vertex="1">
          <mxGeometry x="110" y="540" width="110" height="70" as="geometry" />
        </mxCell>
        <mxCell id="QzYbUXmsJDATOxkpllEX-1" value="Gestionar pedidos" style="ellipse;whiteSpace=wrap;html=1;strokeColor=#d79b00;fillColor=#ffe6cc;fontColor=#FF8000;labelBorderColor=none;" vertex="1" parent="1">
          <mxGeometry x="294" y="670" width="120" height="60" as="geometry" />
        </mxCell>
        <mxCell id="QzYbUXmsJDATOxkpllEX-3" style="edgeStyle=orthogonalEdgeStyle;rounded=0;orthogonalLoop=1;jettySize=auto;html=1;entryX=0.958;entryY=0.352;entryDx=0;entryDy=0;entryPerimeter=0;fillColor=#ffe6cc;strokeColor=#d79b00;" edge="1" parent="1" source="qiUgwwKjVemnB6bvXaoM-6" target="QzYbUXmsJDATOxkpllEX-1">
          <mxGeometry relative="1" as="geometry">
            <Array as="points">
              <mxPoint x="490" y="638" />
              <mxPoint x="409" y="638" />
            </Array>
          </mxGeometry>
        </mxCell>
      </root>
    </mxGraphModel>
  </diagram>
</mxfile>
